<mxfile host="Electron" agent="Mozilla/5.0 (Windows NT 10.0; Win64; x64) AppleWebKit/537.36 (KHTML, like Gecko) draw.io/26.2.2 Chrome/134.0.6998.178 Electron/35.1.2 Safari/537.36" version="26.2.2" pages="3">
  <diagram name="Страница — 1" id="u2GiWMayp5eoxstcXLcH">
    <mxGraphModel dx="816" dy="485" grid="1" gridSize="10" guides="1" tooltips="1" connect="1" arrows="1" fold="1" page="1" pageScale="1" pageWidth="827" pageHeight="1169" math="0" shadow="0">
      <root>
        <mxCell id="0" />
        <mxCell id="1" parent="0" />
        <mxCell id="3b3rUxvdgcKu04hjFaUo-7" value="Предмет" style="strokeWidth=1;shadow=0;dashed=0;align=center;html=1;shape=mxgraph.mockup.containers.window;align=left;verticalAlign=top;spacingLeft=8;strokeColor2=#008cff;strokeColor3=#c4c4c4;fontColor=#666666;mainText=;fontSize=17;labelBackgroundColor=none;whiteSpace=wrap;" vertex="1" parent="1">
          <mxGeometry x="120" y="280" width="550" height="380" as="geometry" />
        </mxCell>
        <UserObject label="Управление статусом" link="data:page/id,0NzljgPGUYFdt3Nn6XSQ" id="3b3rUxvdgcKu04hjFaUo-48">
          <mxCell style="strokeWidth=1;shadow=0;dashed=0;align=center;html=1;shape=mxgraph.mockup.buttons.button;strokeColor=#666666;fontColor=#ffffff;mainText=;buttonStyle=round;fontSize=13;fontStyle=1;fillColor=#008cff;whiteSpace=wrap;spacing=1;" vertex="1" parent="1">
            <mxGeometry x="440" y="615" width="220" height="25" as="geometry" />
          </mxCell>
        </UserObject>
        <mxCell id="3b3rUxvdgcKu04hjFaUo-49" value="Скачать" style="strokeWidth=1;shadow=0;dashed=0;align=center;html=1;shape=mxgraph.mockup.buttons.button;strokeColor=#666666;fontColor=#ffffff;mainText=;buttonStyle=round;fontSize=13;fontStyle=1;fillColor=#008cff;whiteSpace=wrap;spacing=1;" vertex="1" parent="1">
          <mxGeometry x="440" y="580" width="220" height="25" as="geometry" />
        </mxCell>
        <mxCell id="3b3rUxvdgcKu04hjFaUo-465" value="" style="strokeWidth=1;shadow=0;dashed=0;align=center;html=1;shape=mxgraph.mockup.forms.rrect;rSize=0;strokeColor=#999999;fillColor=#ffffff;" vertex="1" parent="1">
          <mxGeometry x="160" y="340" width="200" height="300" as="geometry" />
        </mxCell>
        <mxCell id="3b3rUxvdgcKu04hjFaUo-466" value="Статус" style="strokeWidth=1;shadow=0;dashed=0;align=center;html=1;shape=mxgraph.mockup.forms.anchor;fontSize=12;fontColor=#666666;align=left;resizeWidth=1;spacingLeft=0;" vertex="1" parent="3b3rUxvdgcKu04hjFaUo-465">
          <mxGeometry width="100" height="20" relative="1" as="geometry">
            <mxPoint x="10" y="10" as="offset" />
          </mxGeometry>
        </mxCell>
        <mxCell id="3b3rUxvdgcKu04hjFaUo-467" value="" style="shape=line;strokeColor=#ddeeff;strokeWidth=2;html=1;resizeWidth=1;" vertex="1" parent="3b3rUxvdgcKu04hjFaUo-465">
          <mxGeometry width="180" height="10" relative="1" as="geometry">
            <mxPoint x="10" y="30" as="offset" />
          </mxGeometry>
        </mxCell>
        <mxCell id="3b3rUxvdgcKu04hjFaUo-468" value="Название" style="strokeWidth=1;shadow=0;dashed=0;align=center;html=1;shape=mxgraph.mockup.forms.anchor;fontSize=12;fontColor=#666666;align=left;resizeWidth=1;spacingLeft=0;" vertex="1" parent="3b3rUxvdgcKu04hjFaUo-465">
          <mxGeometry width="100" height="20" relative="1" as="geometry">
            <mxPoint x="10" y="40" as="offset" />
          </mxGeometry>
        </mxCell>
        <mxCell id="3b3rUxvdgcKu04hjFaUo-469" value="" style="strokeWidth=1;shadow=0;dashed=0;align=center;html=1;shape=mxgraph.mockup.forms.rrect;rSize=0;strokeColor=#999999;fontColor=#666666;align=left;spacingLeft=5;resizeWidth=1;" vertex="1" parent="3b3rUxvdgcKu04hjFaUo-465">
          <mxGeometry width="150" height="25" relative="1" as="geometry">
            <mxPoint x="10" y="60" as="offset" />
          </mxGeometry>
        </mxCell>
        <mxCell id="3b3rUxvdgcKu04hjFaUo-470" value="Описание" style="strokeWidth=1;shadow=0;dashed=0;align=center;html=1;shape=mxgraph.mockup.forms.anchor;fontSize=12;fontColor=#666666;align=left;resizeWidth=1;spacingLeft=0;" vertex="1" parent="3b3rUxvdgcKu04hjFaUo-465">
          <mxGeometry width="100" height="20" relative="1" as="geometry">
            <mxPoint x="10" y="230" as="offset" />
          </mxGeometry>
        </mxCell>
        <mxCell id="3b3rUxvdgcKu04hjFaUo-471" value="" style="strokeWidth=1;shadow=0;dashed=0;align=center;html=1;shape=mxgraph.mockup.forms.rrect;rSize=0;strokeColor=#999999;fontColor=#666666;align=left;spacingLeft=5;resizeWidth=1;" vertex="1" parent="3b3rUxvdgcKu04hjFaUo-465">
          <mxGeometry width="150" height="40" relative="1" as="geometry">
            <mxPoint x="10" y="250" as="offset" />
          </mxGeometry>
        </mxCell>
        <mxCell id="3b3rUxvdgcKu04hjFaUo-477" value="Опубликован" style="strokeWidth=1;shadow=0;dashed=0;align=center;html=1;shape=mxgraph.mockup.forms.comboBox;strokeColor=#999999;fillColor=#ddeeff;align=left;fillColor2=#aaddff;mainText=;fontColor=#666666;fontSize=15;spacingLeft=3;" vertex="1" parent="3b3rUxvdgcKu04hjFaUo-465">
          <mxGeometry x="10" y="94" width="150" height="27" as="geometry" />
        </mxCell>
        <mxCell id="3b3rUxvdgcKu04hjFaUo-479" value="Цена" style="strokeWidth=1;shadow=0;dashed=0;align=center;html=1;shape=mxgraph.mockup.forms.anchor;fontSize=12;fontColor=#666666;align=left;resizeWidth=1;spacingLeft=0;" vertex="1" parent="3b3rUxvdgcKu04hjFaUo-465">
          <mxGeometry x="10" y="127.5" width="100" height="20" as="geometry" />
        </mxCell>
        <mxCell id="3b3rUxvdgcKu04hjFaUo-480" value="" style="strokeWidth=1;shadow=0;dashed=0;align=center;html=1;shape=mxgraph.mockup.forms.rrect;rSize=0;strokeColor=#999999;fontColor=#666666;align=left;spacingLeft=5;resizeWidth=1;" vertex="1" parent="3b3rUxvdgcKu04hjFaUo-465">
          <mxGeometry x="10" y="147.5" width="150" height="25" as="geometry" />
        </mxCell>
        <mxCell id="3b3rUxvdgcKu04hjFaUo-481" value="Количество" style="strokeWidth=1;shadow=0;dashed=0;align=center;html=1;shape=mxgraph.mockup.forms.anchor;fontSize=12;fontColor=#666666;align=left;resizeWidth=1;spacingLeft=0;" vertex="1" parent="3b3rUxvdgcKu04hjFaUo-465">
          <mxGeometry x="10" y="175.5" width="100" height="20" as="geometry" />
        </mxCell>
        <mxCell id="3b3rUxvdgcKu04hjFaUo-482" value="" style="strokeWidth=1;shadow=0;dashed=0;align=center;html=1;shape=mxgraph.mockup.forms.rrect;rSize=0;strokeColor=#999999;fontColor=#666666;align=left;spacingLeft=5;resizeWidth=1;" vertex="1" parent="3b3rUxvdgcKu04hjFaUo-465">
          <mxGeometry x="10" y="195.5" width="150" height="25" as="geometry" />
        </mxCell>
        <mxCell id="3b3rUxvdgcKu04hjFaUo-485" value="Фото" style="verticalLabelPosition=bottom;shadow=0;dashed=0;align=center;html=1;verticalAlign=top;strokeWidth=1;shape=mxgraph.mockup.graphics.simpleIcon;strokeColor=#999999;" vertex="1" parent="1">
          <mxGeometry x="450" y="340" width="200" height="200" as="geometry" />
        </mxCell>
      </root>
    </mxGraphModel>
  </diagram>
  <diagram id="0NzljgPGUYFdt3Nn6XSQ" name="Страница — 2">
    <mxGraphModel dx="793" dy="472" grid="1" gridSize="10" guides="1" tooltips="1" connect="1" arrows="1" fold="1" page="1" pageScale="1" pageWidth="827" pageHeight="1169" math="0" shadow="0">
      <root>
        <mxCell id="0" />
        <mxCell id="1" parent="0" />
        <mxCell id="SNhC2UW7eTSx1hIjblnp-1" value="Управление статусами" style="strokeWidth=1;shadow=0;dashed=0;align=center;html=1;shape=mxgraph.mockup.containers.window;align=left;verticalAlign=top;spacingLeft=8;strokeColor2=#008cff;strokeColor3=#c4c4c4;fontColor=#666666;mainText=;fontSize=17;labelBackgroundColor=none;whiteSpace=wrap;" vertex="1" parent="1">
          <mxGeometry x="120" y="280" width="550" height="380" as="geometry" />
        </mxCell>
        <mxCell id="mrhQKpQEnQQBFM6y3uaQ-1" value="История проекта" style="swimlane;strokeColor=#999999;swimlaneFillColor=#FFFFFF;fillColor=#ffffff;fontColor=#008CFF;fontStyle=0;childLayout=stackLayout;horizontal=1;startSize=30;horizontalStack=0;resizeParent=1;resizeParentMax=0;resizeLast=0;collapsible=0;marginBottom=0;whiteSpace=wrap;html=1;fontSize=17;" vertex="1" parent="1">
          <mxGeometry x="150" y="340" width="500" height="250" as="geometry" />
        </mxCell>
        <mxCell id="mrhQKpQEnQQBFM6y3uaQ-2" value="Действие 1" style="text;spacing=0;strokeColor=none;align=left;verticalAlign=middle;spacingLeft=7;spacingRight=10;overflow=hidden;points=[[0,0.5],[1,0.5]];portConstraint=eastwest;rotatable=0;whiteSpace=wrap;html=1;fillColor=none;fontColor=#666666;fontSize=17;" vertex="1" parent="mrhQKpQEnQQBFM6y3uaQ-1">
          <mxGeometry y="30" width="500" height="20" as="geometry" />
        </mxCell>
        <mxCell id="mrhQKpQEnQQBFM6y3uaQ-3" value="Действие 2" style="text;spacing=0;strokeColor=none;align=left;verticalAlign=middle;spacingLeft=7;spacingRight=10;overflow=hidden;points=[[0,0.5],[1,0.5]];portConstraint=eastwest;rotatable=0;whiteSpace=wrap;html=1;rSize=5;fillColor=none;fontColor=#666666;fontSize=17;" vertex="1" parent="mrhQKpQEnQQBFM6y3uaQ-1">
          <mxGeometry y="50" width="500" height="20" as="geometry" />
        </mxCell>
        <mxCell id="mrhQKpQEnQQBFM6y3uaQ-4" value="Действие 3" style="text;spacing=0;strokeColor=none;align=left;verticalAlign=middle;spacingLeft=7;spacingRight=10;overflow=hidden;points=[[0,0.5],[1,0.5]];portConstraint=eastwest;rotatable=0;whiteSpace=wrap;html=1;rSize=5;fillColor=#DDEEFF;fontColor=#666666;fontSize=17;" vertex="1" parent="mrhQKpQEnQQBFM6y3uaQ-1">
          <mxGeometry y="70" width="500" height="20" as="geometry" />
        </mxCell>
        <mxCell id="mrhQKpQEnQQBFM6y3uaQ-5" value="Действие 4" style="text;spacing=0;strokeColor=none;align=left;verticalAlign=middle;spacingLeft=7;spacingRight=10;overflow=hidden;points=[[0,0.5],[1,0.5]];portConstraint=eastwest;rotatable=0;whiteSpace=wrap;html=1;fillColor=none;fontColor=#666666;fontSize=17;" vertex="1" parent="mrhQKpQEnQQBFM6y3uaQ-1">
          <mxGeometry y="90" width="500" height="20" as="geometry" />
        </mxCell>
        <mxCell id="mrhQKpQEnQQBFM6y3uaQ-9" value="Действие 5" style="text;spacing=0;strokeColor=none;align=left;verticalAlign=middle;spacingLeft=7;spacingRight=10;overflow=hidden;points=[[0,0.5],[1,0.5]];portConstraint=eastwest;rotatable=0;whiteSpace=wrap;html=1;fillColor=none;fontColor=#666666;fontSize=17;" vertex="1" parent="mrhQKpQEnQQBFM6y3uaQ-1">
          <mxGeometry y="110" width="500" height="20" as="geometry" />
        </mxCell>
        <mxCell id="mrhQKpQEnQQBFM6y3uaQ-10" value="Действие 6" style="text;spacing=0;strokeColor=none;align=left;verticalAlign=middle;spacingLeft=7;spacingRight=10;overflow=hidden;points=[[0,0.5],[1,0.5]];portConstraint=eastwest;rotatable=0;whiteSpace=wrap;html=1;fillColor=none;fontColor=#666666;fontSize=17;" vertex="1" parent="mrhQKpQEnQQBFM6y3uaQ-1">
          <mxGeometry y="130" width="500" height="20" as="geometry" />
        </mxCell>
        <mxCell id="mrhQKpQEnQQBFM6y3uaQ-6" value="" style="text;spacing=0;strokeColor=none;align=left;verticalAlign=middle;spacingLeft=7;spacingRight=10;overflow=hidden;points=[[0,0.5],[1,0.5]];portConstraint=eastwest;rotatable=0;whiteSpace=wrap;html=1;fillColor=none;fontColor=#666666;fontSize=17;" vertex="1" parent="mrhQKpQEnQQBFM6y3uaQ-1">
          <mxGeometry y="150" width="500" height="100" as="geometry" />
        </mxCell>
        <UserObject label="&lt;font style=&quot;font-size: 15px;&quot;&gt;Статистика&lt;/font&gt;" link="data:page/id,lzUieQwvnKC7QbP36ypO" id="mrhQKpQEnQQBFM6y3uaQ-7">
          <mxCell style="strokeWidth=1;shadow=0;dashed=0;align=center;html=1;shape=mxgraph.mockup.buttons.button;strokeColor=#666666;fontColor=#ffffff;mainText=;buttonStyle=round;fontSize=17;fontStyle=1;fillColor=#008cff;whiteSpace=wrap;" vertex="1" parent="1">
            <mxGeometry x="150" y="610" width="500" height="30" as="geometry" />
          </mxCell>
        </UserObject>
        <UserObject label="Назад" link="data:page/id,u2GiWMayp5eoxstcXLcH" id="JR3XkVMSRk9IhC-1E6Sy-1">
          <mxCell style="strokeWidth=1;shadow=0;dashed=0;align=center;html=1;shape=mxgraph.mockup.buttons.button;strokeColor=#666666;fontColor=#ffffff;mainText=;buttonStyle=round;fontSize=13;fontStyle=1;fillColor=#008cff;whiteSpace=wrap;" vertex="1" parent="1">
            <mxGeometry x="520" y="285" width="70" height="20" as="geometry" />
          </mxCell>
        </UserObject>
      </root>
    </mxGraphModel>
  </diagram>
  <diagram id="lzUieQwvnKC7QbP36ypO" name="Страница — 3">
    <mxGraphModel dx="1428" dy="849" grid="1" gridSize="10" guides="1" tooltips="1" connect="1" arrows="1" fold="1" page="1" pageScale="1" pageWidth="827" pageHeight="1169" math="0" shadow="0">
      <root>
        <mxCell id="0" />
        <mxCell id="1" parent="0" />
        <mxCell id="60pLWKPa7nHZyJYDpDAJ-1" value="Статистика" style="strokeWidth=1;shadow=0;dashed=0;align=center;html=1;shape=mxgraph.mockup.containers.window;align=left;verticalAlign=top;spacingLeft=8;strokeColor2=#008cff;strokeColor3=#c4c4c4;fontColor=#666666;mainText=;fontSize=17;labelBackgroundColor=none;whiteSpace=wrap;" vertex="1" parent="1">
          <mxGeometry x="120" y="280" width="600" height="570" as="geometry" />
        </mxCell>
        <mxCell id="60pLWKPa7nHZyJYDpDAJ-2" value="" style="verticalLabelPosition=bottom;shadow=0;dashed=0;align=center;html=1;verticalAlign=top;strokeWidth=1;shape=mxgraph.mockup.graphics.columnChart;strokeColor=none;strokeColor2=none;strokeColor3=#666666;fillColor2=#008cff;fillColor3=#dddddd;" vertex="1" parent="1">
          <mxGeometry x="170" y="350" width="220" height="160" as="geometry" />
        </mxCell>
        <mxCell id="60pLWKPa7nHZyJYDpDAJ-3" value="" style="verticalLabelPosition=bottom;shadow=0;dashed=0;align=center;html=1;verticalAlign=top;strokeWidth=1;shape=mxgraph.mockup.graphics.pieChart;strokeColor=#008cff;parts=10,20,35;partColors=#e0e0e0,#d0d0d0,#c0c0c0,#b0b0b0,#a0a0a0;strokeWidth=2;" vertex="1" parent="1">
          <mxGeometry x="500" y="350" width="160" height="160" as="geometry" />
        </mxCell>
        <mxCell id="60pLWKPa7nHZyJYDpDAJ-50" value="" style="strokeWidth=1;shadow=0;dashed=0;align=center;html=1;shape=mxgraph.mockup.graphics.rrect;rSize=0;strokeColor=#999999;" vertex="1" parent="1">
          <mxGeometry x="120" y="550" width="600" height="300" as="geometry" />
        </mxCell>
        <mxCell id="60pLWKPa7nHZyJYDpDAJ-51" value="#" style="strokeColor=inherit;fillColor=inherit;gradientColor=inherit;strokeWidth=1;shadow=0;dashed=0;align=center;html=1;shape=mxgraph.mockup.graphics.rrect;rSize=0;fontColor=#666666;" vertex="1" parent="60pLWKPa7nHZyJYDpDAJ-50">
          <mxGeometry width="20" height="40" as="geometry" />
        </mxCell>
        <mxCell id="60pLWKPa7nHZyJYDpDAJ-52" value="Task" style="strokeColor=inherit;fillColor=inherit;gradientColor=inherit;strokeWidth=1;shadow=0;dashed=0;align=center;html=1;shape=mxgraph.mockup.graphics.rrect;rSize=0;fontColor=#666666;" vertex="1" parent="60pLWKPa7nHZyJYDpDAJ-50">
          <mxGeometry x="20" width="40" height="40" as="geometry" />
        </mxCell>
        <mxCell id="60pLWKPa7nHZyJYDpDAJ-53" value="Start" style="strokeColor=inherit;fillColor=inherit;gradientColor=inherit;strokeWidth=1;shadow=0;dashed=0;align=center;html=1;shape=mxgraph.mockup.graphics.rrect;rSize=0;fontColor=#666666;" vertex="1" parent="60pLWKPa7nHZyJYDpDAJ-50">
          <mxGeometry x="60" width="130" height="40" as="geometry" />
        </mxCell>
        <mxCell id="60pLWKPa7nHZyJYDpDAJ-54" value="Effort" style="strokeColor=inherit;fillColor=inherit;gradientColor=inherit;strokeWidth=1;shadow=0;dashed=0;align=center;html=1;shape=mxgraph.mockup.graphics.rrect;rSize=0;fontColor=#666666;" vertex="1" parent="60pLWKPa7nHZyJYDpDAJ-50">
          <mxGeometry x="190" width="50" height="40" as="geometry" />
        </mxCell>
        <mxCell id="60pLWKPa7nHZyJYDpDAJ-55" value="20//10//2014" style="strokeColor=inherit;fillColor=inherit;gradientColor=inherit;strokeWidth=1;shadow=0;dashed=0;align=center;html=1;shape=mxgraph.mockup.graphics.rrect;rSize=0;fontColor=#666666;" vertex="1" parent="60pLWKPa7nHZyJYDpDAJ-50">
          <mxGeometry x="240" width="210" height="20" as="geometry" />
        </mxCell>
        <mxCell id="60pLWKPa7nHZyJYDpDAJ-56" value="27//10//2014" style="strokeColor=inherit;fillColor=inherit;gradientColor=inherit;strokeWidth=1;shadow=0;dashed=0;align=center;html=1;shape=mxgraph.mockup.graphics.rrect;rSize=0;fontColor=#666666;" vertex="1" parent="60pLWKPa7nHZyJYDpDAJ-50">
          <mxGeometry x="450" width="150" height="20" as="geometry" />
        </mxCell>
        <mxCell id="60pLWKPa7nHZyJYDpDAJ-57" value="M" style="strokeColor=inherit;fillColor=inherit;gradientColor=inherit;strokeWidth=1;shadow=0;dashed=0;align=center;html=1;shape=mxgraph.mockup.graphics.rrect;rSize=0;;fontColor=#666666;" vertex="1" parent="60pLWKPa7nHZyJYDpDAJ-50">
          <mxGeometry x="240" y="20" width="30" height="20" as="geometry" />
        </mxCell>
        <mxCell id="60pLWKPa7nHZyJYDpDAJ-58" value="T" style="strokeColor=inherit;fillColor=inherit;gradientColor=inherit;strokeWidth=1;shadow=0;dashed=0;align=center;html=1;shape=mxgraph.mockup.graphics.rrect;rSize=0;fontColor=#666666;" vertex="1" parent="60pLWKPa7nHZyJYDpDAJ-50">
          <mxGeometry x="270" y="20" width="30" height="20" as="geometry" />
        </mxCell>
        <mxCell id="60pLWKPa7nHZyJYDpDAJ-59" value="W" style="strokeColor=inherit;fillColor=inherit;gradientColor=inherit;strokeWidth=1;shadow=0;dashed=0;align=center;html=1;shape=mxgraph.mockup.graphics.rrect;rSize=0;fontColor=#666666;" vertex="1" parent="60pLWKPa7nHZyJYDpDAJ-50">
          <mxGeometry x="300" y="20" width="30" height="20" as="geometry" />
        </mxCell>
        <mxCell id="60pLWKPa7nHZyJYDpDAJ-60" value="T" style="strokeColor=inherit;fillColor=inherit;gradientColor=inherit;strokeWidth=1;shadow=0;dashed=0;align=center;html=1;shape=mxgraph.mockup.graphics.rrect;rSize=0;fontColor=#666666;" vertex="1" parent="60pLWKPa7nHZyJYDpDAJ-50">
          <mxGeometry x="330" y="20" width="30" height="20" as="geometry" />
        </mxCell>
        <mxCell id="60pLWKPa7nHZyJYDpDAJ-61" value="F" style="strokeColor=inherit;fillColor=inherit;gradientColor=inherit;strokeWidth=1;shadow=0;dashed=0;align=center;html=1;shape=mxgraph.mockup.graphics.rrect;rSize=0;fontColor=#666666;" vertex="1" parent="60pLWKPa7nHZyJYDpDAJ-50">
          <mxGeometry x="360" y="20" width="30" height="20" as="geometry" />
        </mxCell>
        <mxCell id="60pLWKPa7nHZyJYDpDAJ-62" value="S" style="strokeColor=inherit;fillColor=inherit;gradientColor=inherit;strokeWidth=1;shadow=0;dashed=0;align=center;html=1;shape=mxgraph.mockup.graphics.rrect;rSize=0;fontColor=#666666;" vertex="1" parent="60pLWKPa7nHZyJYDpDAJ-50">
          <mxGeometry x="390" y="20" width="30" height="20" as="geometry" />
        </mxCell>
        <mxCell id="60pLWKPa7nHZyJYDpDAJ-63" value="S" style="strokeColor=inherit;fillColor=inherit;gradientColor=inherit;strokeWidth=1;shadow=0;dashed=0;align=center;html=1;shape=mxgraph.mockup.graphics.rrect;rSize=0;fontColor=#666666;" vertex="1" parent="60pLWKPa7nHZyJYDpDAJ-50">
          <mxGeometry x="420" y="20" width="30" height="20" as="geometry" />
        </mxCell>
        <mxCell id="60pLWKPa7nHZyJYDpDAJ-64" value="M" style="strokeColor=inherit;fillColor=inherit;gradientColor=inherit;strokeWidth=1;shadow=0;dashed=0;align=center;html=1;shape=mxgraph.mockup.graphics.rrect;rSize=0;fontColor=#666666;" vertex="1" parent="60pLWKPa7nHZyJYDpDAJ-50">
          <mxGeometry x="450" y="20" width="30" height="20" as="geometry" />
        </mxCell>
        <mxCell id="60pLWKPa7nHZyJYDpDAJ-65" value="T" style="strokeColor=inherit;fillColor=inherit;gradientColor=inherit;strokeWidth=1;shadow=0;dashed=0;align=center;html=1;shape=mxgraph.mockup.graphics.rrect;rSize=0;fontColor=#666666;" vertex="1" parent="60pLWKPa7nHZyJYDpDAJ-50">
          <mxGeometry x="480" y="20" width="30" height="20" as="geometry" />
        </mxCell>
        <mxCell id="60pLWKPa7nHZyJYDpDAJ-66" value="W" style="strokeColor=inherit;fillColor=inherit;gradientColor=inherit;strokeWidth=1;shadow=0;dashed=0;align=center;html=1;shape=mxgraph.mockup.graphics.rrect;rSize=0;fontColor=#666666;" vertex="1" parent="60pLWKPa7nHZyJYDpDAJ-50">
          <mxGeometry x="510" y="20" width="30" height="20" as="geometry" />
        </mxCell>
        <mxCell id="60pLWKPa7nHZyJYDpDAJ-67" value="T" style="strokeColor=inherit;fillColor=inherit;gradientColor=inherit;strokeWidth=1;shadow=0;dashed=0;align=center;html=1;shape=mxgraph.mockup.graphics.rrect;rSize=0;fontColor=#666666;" vertex="1" parent="60pLWKPa7nHZyJYDpDAJ-50">
          <mxGeometry x="540" y="20" width="30" height="20" as="geometry" />
        </mxCell>
        <mxCell id="60pLWKPa7nHZyJYDpDAJ-68" value="F" style="strokeColor=inherit;fillColor=inherit;gradientColor=inherit;strokeWidth=1;shadow=0;dashed=0;align=center;html=1;shape=mxgraph.mockup.graphics.rrect;rSize=0;fontColor=#666666;" vertex="1" parent="60pLWKPa7nHZyJYDpDAJ-50">
          <mxGeometry x="570" y="20" width="30" height="20" as="geometry" />
        </mxCell>
        <mxCell id="60pLWKPa7nHZyJYDpDAJ-69" value="" style="strokeColor=inherit;fillColor=inherit;gradientColor=inherit;strokeWidth=1;shadow=0;dashed=0;align=center;html=1;shape=mxgraph.mockup.graphics.rrect;rSize=0;fontColor=#666666;" vertex="1" parent="60pLWKPa7nHZyJYDpDAJ-50">
          <mxGeometry y="40" width="240" height="260" as="geometry" />
        </mxCell>
        <mxCell id="60pLWKPa7nHZyJYDpDAJ-70" value="" style="strokeColor=inherit;fillColor=inherit;gradientColor=inherit;strokeWidth=1;shadow=0;dashed=0;align=center;html=1;shape=mxgraph.mockup.graphics.rrect;rSize=0;fontColor=#666666;" vertex="1" parent="60pLWKPa7nHZyJYDpDAJ-50">
          <mxGeometry x="240" y="40" width="60" height="260" as="geometry" />
        </mxCell>
        <mxCell id="60pLWKPa7nHZyJYDpDAJ-71" value="" style="strokeColor=inherit;fillColor=inherit;gradientColor=inherit;strokeWidth=1;shadow=0;dashed=0;align=center;html=1;shape=mxgraph.mockup.graphics.rrect;rSize=0;fontColor=#666666;" vertex="1" parent="60pLWKPa7nHZyJYDpDAJ-50">
          <mxGeometry x="300" y="40" width="60" height="260" as="geometry" />
        </mxCell>
        <mxCell id="60pLWKPa7nHZyJYDpDAJ-72" value="" style="strokeColor=inherit;fillColor=inherit;gradientColor=inherit;strokeWidth=1;shadow=0;dashed=0;align=center;html=1;shape=mxgraph.mockup.graphics.rrect;rSize=0;fontColor=#666666;" vertex="1" parent="60pLWKPa7nHZyJYDpDAJ-50">
          <mxGeometry x="360" y="40" width="60" height="260" as="geometry" />
        </mxCell>
        <mxCell id="60pLWKPa7nHZyJYDpDAJ-73" value="" style="strokeColor=inherit;fillColor=inherit;gradientColor=inherit;strokeWidth=1;shadow=0;dashed=0;align=center;html=1;shape=mxgraph.mockup.graphics.rrect;rSize=0;fontColor=#666666;" vertex="1" parent="60pLWKPa7nHZyJYDpDAJ-50">
          <mxGeometry x="420" y="40" width="60" height="260" as="geometry" />
        </mxCell>
        <mxCell id="60pLWKPa7nHZyJYDpDAJ-74" value="" style="strokeColor=inherit;fillColor=inherit;gradientColor=inherit;strokeWidth=1;shadow=0;dashed=0;align=center;html=1;shape=mxgraph.mockup.graphics.rrect;rSize=0;fontColor=#666666;" vertex="1" parent="60pLWKPa7nHZyJYDpDAJ-50">
          <mxGeometry x="480" y="40" width="60" height="260" as="geometry" />
        </mxCell>
        <mxCell id="60pLWKPa7nHZyJYDpDAJ-75" value="" style="strokeColor=inherit;fillColor=inherit;gradientColor=inherit;strokeWidth=1;shadow=0;dashed=0;align=center;html=1;shape=mxgraph.mockup.graphics.rrect;rSize=0;fontColor=#666666;" vertex="1" parent="60pLWKPa7nHZyJYDpDAJ-50">
          <mxGeometry x="540" y="40" width="60" height="260" as="geometry" />
        </mxCell>
        <mxCell id="60pLWKPa7nHZyJYDpDAJ-76" value="1" style="strokeWidth=1;shadow=0;dashed=0;align=center;html=1;shape=mxgraph.mockup.graphics.anchor;fontColor=#666666;" vertex="1" parent="60pLWKPa7nHZyJYDpDAJ-50">
          <mxGeometry y="40" width="20" height="20" as="geometry" />
        </mxCell>
        <mxCell id="60pLWKPa7nHZyJYDpDAJ-77" value="Task 1" style="strokeWidth=1;shadow=0;dashed=0;align=center;html=1;shape=mxgraph.mockup.graphics.anchor;fontColor=#666666;" vertex="1" parent="60pLWKPa7nHZyJYDpDAJ-50">
          <mxGeometry x="20" y="40" width="40" height="20" as="geometry" />
        </mxCell>
        <mxCell id="60pLWKPa7nHZyJYDpDAJ-78" value="20//10//2014 8:00 AM" style="strokeWidth=1;shadow=0;dashed=0;align=center;html=1;shape=mxgraph.mockup.graphics.anchor;fontColor=#666666;" vertex="1" parent="60pLWKPa7nHZyJYDpDAJ-50">
          <mxGeometry x="60" y="40" width="130" height="20" as="geometry" />
        </mxCell>
        <mxCell id="60pLWKPa7nHZyJYDpDAJ-79" value="40h" style="strokeWidth=1;shadow=0;dashed=0;align=center;html=1;shape=mxgraph.mockup.graphics.anchor;fontColor=#666666;" vertex="1" parent="60pLWKPa7nHZyJYDpDAJ-50">
          <mxGeometry x="190" y="40" width="50" height="20" as="geometry" />
        </mxCell>
        <mxCell id="60pLWKPa7nHZyJYDpDAJ-80" value="2" style="strokeWidth=1;shadow=0;dashed=0;align=center;html=1;shape=mxgraph.mockup.graphics.anchor;fontColor=#666666;" vertex="1" parent="60pLWKPa7nHZyJYDpDAJ-50">
          <mxGeometry y="60" width="20" height="20" as="geometry" />
        </mxCell>
        <mxCell id="60pLWKPa7nHZyJYDpDAJ-81" value="Task 2" style="strokeWidth=1;shadow=0;dashed=0;align=center;html=1;shape=mxgraph.mockup.graphics.anchor;fontColor=#666666;" vertex="1" parent="60pLWKPa7nHZyJYDpDAJ-50">
          <mxGeometry x="20" y="60" width="40" height="20" as="geometry" />
        </mxCell>
        <mxCell id="60pLWKPa7nHZyJYDpDAJ-82" value="20//10//2014 8:00 AM" style="strokeWidth=1;shadow=0;dashed=0;align=center;html=1;shape=mxgraph.mockup.graphics.anchor;fontColor=#666666;" vertex="1" parent="60pLWKPa7nHZyJYDpDAJ-50">
          <mxGeometry x="60" y="60" width="130" height="20" as="geometry" />
        </mxCell>
        <mxCell id="60pLWKPa7nHZyJYDpDAJ-83" value="40h" style="strokeWidth=1;shadow=0;dashed=0;align=center;html=1;shape=mxgraph.mockup.graphics.anchor;fontColor=#666666;" vertex="1" parent="60pLWKPa7nHZyJYDpDAJ-50">
          <mxGeometry x="190" y="60" width="50" height="20" as="geometry" />
        </mxCell>
        <mxCell id="60pLWKPa7nHZyJYDpDAJ-84" value="3" style="strokeWidth=1;shadow=0;dashed=0;align=center;html=1;shape=mxgraph.mockup.graphics.anchor;fontColor=#666666;" vertex="1" parent="60pLWKPa7nHZyJYDpDAJ-50">
          <mxGeometry y="80" width="20" height="20" as="geometry" />
        </mxCell>
        <mxCell id="60pLWKPa7nHZyJYDpDAJ-85" value="Task 3" style="strokeWidth=1;shadow=0;dashed=0;align=center;html=1;shape=mxgraph.mockup.graphics.anchor;fontColor=#666666;" vertex="1" parent="60pLWKPa7nHZyJYDpDAJ-50">
          <mxGeometry x="20" y="80" width="40" height="20" as="geometry" />
        </mxCell>
        <mxCell id="60pLWKPa7nHZyJYDpDAJ-86" value="20//10//2014 8:00 AM" style="strokeWidth=1;shadow=0;dashed=0;align=center;html=1;shape=mxgraph.mockup.graphics.anchor;fontColor=#666666;" vertex="1" parent="60pLWKPa7nHZyJYDpDAJ-50">
          <mxGeometry x="60" y="80" width="130" height="20" as="geometry" />
        </mxCell>
        <mxCell id="60pLWKPa7nHZyJYDpDAJ-87" value="40h" style="strokeWidth=1;shadow=0;dashed=0;align=center;html=1;shape=mxgraph.mockup.graphics.anchor;fontColor=#666666;" vertex="1" parent="60pLWKPa7nHZyJYDpDAJ-50">
          <mxGeometry x="190" y="80" width="50" height="20" as="geometry" />
        </mxCell>
        <mxCell id="60pLWKPa7nHZyJYDpDAJ-88" value="4" style="strokeWidth=1;shadow=0;dashed=0;align=center;html=1;shape=mxgraph.mockup.graphics.anchor;fontColor=#666666;" vertex="1" parent="60pLWKPa7nHZyJYDpDAJ-50">
          <mxGeometry y="100" width="20" height="20" as="geometry" />
        </mxCell>
        <mxCell id="60pLWKPa7nHZyJYDpDAJ-89" value="Task 4" style="strokeWidth=1;shadow=0;dashed=0;align=center;html=1;shape=mxgraph.mockup.graphics.anchor;fontColor=#666666;" vertex="1" parent="60pLWKPa7nHZyJYDpDAJ-50">
          <mxGeometry x="20" y="100" width="40" height="20" as="geometry" />
        </mxCell>
        <mxCell id="60pLWKPa7nHZyJYDpDAJ-90" value="20//10//2014 8:00 AM" style="strokeWidth=1;shadow=0;dashed=0;align=center;html=1;shape=mxgraph.mockup.graphics.anchor;fontColor=#666666;" vertex="1" parent="60pLWKPa7nHZyJYDpDAJ-50">
          <mxGeometry x="60" y="100" width="130" height="20" as="geometry" />
        </mxCell>
        <mxCell id="60pLWKPa7nHZyJYDpDAJ-91" value="40h" style="strokeWidth=1;shadow=0;dashed=0;align=center;html=1;shape=mxgraph.mockup.graphics.anchor;fontColor=#666666;" vertex="1" parent="60pLWKPa7nHZyJYDpDAJ-50">
          <mxGeometry x="190" y="100" width="50" height="20" as="geometry" />
        </mxCell>
        <mxCell id="60pLWKPa7nHZyJYDpDAJ-92" value="" style="strokeWidth=1;shadow=0;dashed=0;align=center;html=1;shape=mxgraph.mockup.graphics.rrect;rSize=0;strokeColor=none;fillColor=#aaddff;" vertex="1" parent="60pLWKPa7nHZyJYDpDAJ-50">
          <mxGeometry x="250" y="45" width="130" height="10" as="geometry" />
        </mxCell>
        <mxCell id="60pLWKPa7nHZyJYDpDAJ-93" value="" style="strokeWidth=1;shadow=0;dashed=0;align=center;html=1;shape=mxgraph.mockup.graphics.rrect;rSize=0;strokeColor=none;fillColor=#aaddff;" vertex="1" parent="60pLWKPa7nHZyJYDpDAJ-50">
          <mxGeometry x="250" y="65" width="40" height="10" as="geometry" />
        </mxCell>
        <mxCell id="60pLWKPa7nHZyJYDpDAJ-94" value="" style="strokeWidth=1;shadow=0;dashed=0;align=center;html=1;shape=mxgraph.mockup.graphics.rrect;rSize=0;strokeColor=none;fillColor=#aaddff;" vertex="1" parent="60pLWKPa7nHZyJYDpDAJ-50">
          <mxGeometry x="280" y="85" width="100" height="10" as="geometry" />
        </mxCell>
        <mxCell id="60pLWKPa7nHZyJYDpDAJ-95" value="" style="strokeWidth=1;shadow=0;dashed=0;align=center;html=1;shape=mxgraph.mockup.graphics.rrect;rSize=0;strokeColor=none;fillColor=#aaddff;" vertex="1" parent="60pLWKPa7nHZyJYDpDAJ-50">
          <mxGeometry x="340" y="105" width="70" height="10" as="geometry" />
        </mxCell>
        <UserObject label="Назад" link="data:page/id,0NzljgPGUYFdt3Nn6XSQ" id="60pLWKPa7nHZyJYDpDAJ-96">
          <mxCell style="strokeWidth=1;shadow=0;dashed=0;align=center;html=1;shape=mxgraph.mockup.buttons.button;strokeColor=#666666;fontColor=#ffffff;mainText=;buttonStyle=round;fontSize=13;fontStyle=1;fillColor=#008cff;whiteSpace=wrap;" vertex="1" parent="1">
            <mxGeometry x="547" y="285" width="85" height="20" as="geometry" />
          </mxCell>
        </UserObject>
      </root>
    </mxGraphModel>
  </diagram>
</mxfile>
